<svg xmlns="http://www.w3.org/2000/svg" width="173.5" height="189.555" viewBox="0 0 173.5 189.555">
  <defs>
    <style>
      .cls-1 {
        fill: #fe6031;
      }
    </style>
  </defs>
  <g id="eat" transform="translate(-21.699)">
    <g id="Group_24" data-name="Group 24" transform="translate(21.699 0)">
      <g id="Group_23" data-name="Group 23">
        <g id="Group_22" data-name="Group 22">
          <path id="Path_7" data-name="Path 7" class="cls-1" d="M202.943,84.477a84.357,84.357,0,0,0-12.208-43.746,18.028,18.028,0,0,1,8.656-7.129,3.591,3.591,0,0,0,0-6.721c-7.406-2.769-10.655-10.021-11.932-14.1a3.592,3.592,0,0,0-6.853,0,25.9,25.9,0,0,1-5.122,9.363,85.066,85.066,0,0,0-10.02-7.875,2.774,2.774,0,0,0-3.09,4.608,79.12,79.12,0,0,1,8.772,6.833,16.414,16.414,0,0,1-2.473,1.17,3.591,3.591,0,0,0,0,6.721c7.406,2.769,10.655,10.022,11.932,14.1a3.592,3.592,0,0,0,6.853,0c.1-.307.205-.634.325-.974a78.87,78.87,0,0,1-20.939,100.067l-2.571-24.028a59.631,59.631,0,0,0-9.137-85.4L153.9,25.844a9.565,9.565,0,0,0-12.871-7.8,9.426,9.426,0,0,0-3.075,1.953,10.1,10.1,0,0,0-2.943,7.087,59.7,59.7,0,0,0-42.508,3.613l-10.6-1.4a4.7,4.7,0,0,0-5.267,4.038L75.34,43.2a59.6,59.6,0,0,0-1.462,80.972l-3.061,23.172A78.92,78.92,0,0,1,151.479,12.762,2.774,2.774,0,1,0,153.8,7.724,84.5,84.5,0,0,0,33.989,84.477a83.923,83.923,0,0,0,24.743,59.734,85.31,85.31,0,0,0,11.249,9.455l-.636,4.816a2.774,2.774,0,0,0,5.5.727l8.021-60.717,8.7,1.15L80.878,180.586c-.693,5.245-9.391,4.052-8.7-1.157l.977-7.4a2.774,2.774,0,0,0-5.5-.727l-.978,7.4a9.453,9.453,0,0,0,1.882,7.036c5.139,6.7,16.7,4.145,17.823-4.433l2.342-17.728a85.086,85.086,0,0,0,59.915-.154l1.888,17.649c.911,8.52,12.462,11.377,17.708,4.873a9.456,9.456,0,0,0,2.055-6.988l-2.75-25.7a85.482,85.482,0,0,0,10.664-9.047,83.928,83.928,0,0,0,24.742-59.735Zm-18.911-43.16A26.023,26.023,0,0,0,174.4,30.242a26.022,26.022,0,0,0,9.637-11.075,26.02,26.02,0,0,0,9.637,11.075A26.024,26.024,0,0,0,184.032,41.317Zm-11.383,43.16a53.863,53.863,0,0,1-9.238,30.224l-2.105-19.68L156,45.443A54.027,54.027,0,0,1,172.649,84.477Zm-32.06-57.813a3.912,3.912,0,0,1,7.8-.229l7.106,66.419-8.73.934-.808-7.548a9.418,9.418,0,0,0-3.282-6.2L139.687,77.5a3.938,3.938,0,0,1-1.375-3.168s2.277-47.666,2.277-47.666Zm-22.122,3.63a53.956,53.956,0,0,1,16.275,2.5l-1.971,41.267a9.522,9.522,0,0,0,3.324,7.662c1.691,1.437,4.006,2.727,4.345,5.1l1.1,10.306,3.684,34.431a54.05,54.05,0,0,1-52.362.647l4.57-34.6,1.707-12.924a1.72,1.72,0,0,1,1.094-1.411,15.4,15.4,0,0,0,9.979-12.5L114.5,38.332a4.693,4.693,0,0,0-4.038-5.267l-6.348-.839a54.02,54.02,0,0,1,14.352-1.932Zm-39.031,51.8L77.729,95.015l-2.854,21.6a54.068,54.068,0,0,1-.91-63.018L72.357,65.777a15.4,15.4,0,0,0,6.389,14.667A1.72,1.72,0,0,1,79.436,82.091Zm4.157,10.9,1.344-10.173a7.218,7.218,0,0,0-3.061-6.956A9.8,9.8,0,0,1,77.857,66.5l4.174-31.6,5.181.685-3.487,26.4a2.774,2.774,0,1,0,5.5.726l3.487-26.4,5.492.725-3.487,26.4a2.774,2.774,0,1,0,5.5.726l3.487-26.4,5.181.684-4.174,31.6A9.8,9.8,0,0,1,98.4,78.045a7.218,7.218,0,0,0-4.762,5.922L92.3,94.14Zm34.874,70.415a78.5,78.5,0,0,1-28.993-5.522l2.62-19.831a59.59,59.59,0,0,0,53.772-.515l2.153,20.119A78.5,78.5,0,0,1,118.466,163.406Zm45.447,19.061a4.752,4.752,0,0,1-3.5,1.544,3.972,3.972,0,0,1-4.368-3.524L147.354,99.3l8.731-.934,8.686,81.183A3.942,3.942,0,0,1,163.913,182.467Z" transform="translate(-29.443 0)"/>
          <path id="Path_8" data-name="Path 8" class="cls-1" d="M48.7,396.254c-5.649-2.112-8.141-7.688-9.124-10.824a3.423,3.423,0,0,0-6.532,0h0c-.982,3.136-3.474,8.711-9.123,10.823a3.422,3.422,0,0,0,0,6.407c5.649,2.112,8.141,7.688,9.124,10.824a3.423,3.423,0,0,0,6.532,0c.982-3.136,3.474-8.712,9.123-10.823a3.422,3.422,0,0,0,0-6.407ZM36.306,406.987a21.063,21.063,0,0,0-6.59-7.53,21.053,21.053,0,0,0,6.59-7.53,21.063,21.063,0,0,0,6.59,7.53A21.06,21.06,0,0,0,36.306,406.987Z" transform="translate(-21.699 -241.353)"/>
        </g>
      </g>
    </g>
  </g>
</svg>
