<svg xmlns="http://www.w3.org/2000/svg" width="222.355" height="160.528" viewBox="0 0 222.355 160.528">
  <defs>
    <style>
      .cls-1 {
        fill: #fe6031;
      }
    </style>
  </defs>
  <g id="meeting" transform="translate(0 -66.732)">
    <g id="Group_26" data-name="Group 26" transform="translate(85.236 66.732)">
      <g id="Group_25" data-name="Group 25">
        <path id="Path_9" data-name="Path 9" class="cls-1" d="M223.689,104.981a18.4,18.4,0,0,0,4.781-12.308V85.262a18.53,18.53,0,1,0-37.06,0v7.412a18.4,18.4,0,0,0,4.781,12.308A18.5,18.5,0,0,0,184,122.322v14.824h7.412V122.322A11.118,11.118,0,0,1,202.528,111.2h3.706v25.942h7.412V111.2h3.706a11.118,11.118,0,0,1,11.118,11.118v14.824h7.412V122.322A18.5,18.5,0,0,0,223.689,104.981Zm-2.631-12.308a11.118,11.118,0,1,1-22.236,0V85.262a11.118,11.118,0,1,1,22.236,0Z" transform="translate(-183.998 -66.732)"/>
      </g>
    </g>
    <g id="Group_28" data-name="Group 28" transform="translate(66.707 163.087)">
      <g id="Group_27" data-name="Group 27">
        <path id="Path_10" data-name="Path 10" class="cls-1" d="M176.729,331.971,169.94,321.8V293.262a18.552,18.552,0,0,0-18.53-18.53H144v7.412h7.412a11.118,11.118,0,0,1,11.118,11.118V322.91a3.73,3.73,0,0,0,.623,2.057l3.573,5.355H155.116v-37.06H147.7v40.766a3.706,3.706,0,0,0,3.706,3.706h22.236a3.706,3.706,0,0,0,3.083-5.763Z" transform="translate(-143.998 -274.732)"/>
      </g>
    </g>
    <g id="Group_30" data-name="Group 30" transform="translate(0 66.732)">
      <g id="Group_29" data-name="Group 29">
        <path id="Path_11" data-name="Path 11" class="cls-1" d="M63,92.674V85.262a18.53,18.53,0,1,0-37.06,0v7.412a18.456,18.456,0,0,0,5.533,13.178,22.266,22.266,0,0,0-12.66,16.8,18.361,18.361,0,0,0-11.4-4.036H3.705a3.705,3.705,0,0,0-3.676,4.166l6.456,51.654a12.43,12.43,0,0,0,10.662,10.747L3.9,224.918l7.027,2.342L24.9,185.323H55.589v40.766H63V181.617a18.552,18.552,0,0,0-18.53-18.53H29.647a3.706,3.706,0,0,1-3.706-3.706V126.028A14.824,14.824,0,0,1,40.765,111.2v40.766h7.412V113.264a14.776,14.776,0,0,1,7.412,12.763v33.354H63V126.028a22.187,22.187,0,0,0-8.783-17.663A18.49,18.49,0,0,0,63,92.674ZM29.647,170.5H44.471a11.118,11.118,0,0,1,10.436,7.412H18.818a5.029,5.029,0,0,1-4.981-4.4L7.9,126.028a11.118,11.118,0,0,1,10.625,11.118v22.236A11.118,11.118,0,0,0,29.647,170.5ZM55.589,92.674a11.118,11.118,0,1,1-22.236,0V85.262a11.118,11.118,0,1,1,22.236,0Z" transform="translate(0 -66.732)"/>
      </g>
    </g>
    <g id="Group_32" data-name="Group 32" transform="translate(70.413 144.557)">
      <g id="Group_31" data-name="Group 31" transform="translate(0 0)">
        <path id="Path_12" data-name="Path 12" class="cls-1" d="M152,234.732v7.412h37.06v74.119h7.412V242.144h37.06v-7.412Z" transform="translate(-151.998 -234.732)"/>
      </g>
    </g>
    <g id="Group_34" data-name="Group 34" transform="translate(122.303 163.087)">
      <g id="Group_33" data-name="Group 33">
        <path id="Path_13" data-name="Path 13" class="cls-1" d="M278.829,322.91V293.262a11.118,11.118,0,0,1,11.118-11.118h7.412v-7.412h-7.412a18.552,18.552,0,0,0-18.53,18.53V321.8l-6.789,10.184a3.706,3.706,0,0,0,3.083,5.752h22.236a3.706,3.706,0,0,0,3.706-3.706V293.262h-7.412v37.06H274.634l3.573-5.355A3.731,3.731,0,0,0,278.829,322.91Z" transform="translate(-264.012 -274.732)"/>
      </g>
    </g>
    <g id="Group_36" data-name="Group 36" transform="translate(159.356 66.732)">
      <g id="Group_35" data-name="Group 35" transform="translate(0 0)">
        <path id="Path_14" data-name="Path 14" class="cls-1" d="M400.514,174.42l6.456-51.654a3.707,3.707,0,0,0-3.676-4.151h-3.706a18.361,18.361,0,0,0-11.4,4.036,22.266,22.266,0,0,0-12.66-16.8,18.456,18.456,0,0,0,5.533-13.178V85.262a18.53,18.53,0,0,0-37.06,0v7.412a18.488,18.488,0,0,0,8.783,15.691A22.187,22.187,0,0,0,344,126.028v33.354h7.412V126.028a14.776,14.776,0,0,1,7.412-12.763v38.705h7.412V111.2a14.824,14.824,0,0,1,14.824,14.824v33.354a3.706,3.706,0,0,1-3.706,3.706H362.528A18.552,18.552,0,0,0,344,181.617v44.472h7.412V185.323H382.1l13.979,41.937,7.041-2.342-13.264-39.75A12.43,12.43,0,0,0,400.514,174.42ZM373.646,92.674a11.118,11.118,0,0,1-22.236,0V85.262a11.118,11.118,0,1,1,22.236,0Zm14.535,85.237H352.092a11.118,11.118,0,0,1,10.436-7.412h14.824a11.118,11.118,0,0,0,11.118-11.118V137.145a11.118,11.118,0,0,1,10.625-11.118l-5.93,47.477A5.029,5.029,0,0,1,388.181,177.911Z" transform="translate(-343.998 -66.732)"/>
      </g>
    </g>
  </g>
</svg>
