<svg xmlns="http://www.w3.org/2000/svg" width="52.35" height="45.807" viewBox="0 0 52.35 45.807">
  <path id="quote-right-solid" d="M47.443,32H34.355a4.909,4.909,0,0,0-4.908,4.908V50A4.909,4.909,0,0,0,34.355,54.9h8.18v6.544a6.55,6.55,0,0,1-6.544,6.544h-.818a2.448,2.448,0,0,0-2.454,2.454v4.908a2.448,2.448,0,0,0,2.454,2.454h.818a16.355,16.355,0,0,0,16.36-16.36V36.908A4.909,4.909,0,0,0,47.443,32ZM18,32H4.908A4.909,4.909,0,0,0,0,36.908V50A4.909,4.909,0,0,0,4.908,54.9h8.18v6.544a6.55,6.55,0,0,1-6.544,6.544H5.726a2.448,2.448,0,0,0-2.454,2.454v4.908a2.448,2.448,0,0,0,2.454,2.454h.818A16.355,16.355,0,0,0,22.9,61.447V36.908A4.909,4.909,0,0,0,18,32Z" transform="translate(0 -32)" fill="#fff1cc"/>
</svg>
