<svg xmlns="http://www.w3.org/2000/svg" width="253" height="190.73" viewBox="0 0 253 190.73">
  <defs>
    <style>
      .cls-1 {
        fill: #fe6031;
      }
    </style>
  </defs>
  <g id="scooter" transform="translate(0 -0.5)">
    <path id="Path_4" data-name="Path 4" class="cls-1" d="M213.472,366.453a4.943,4.943,0,1,0,3.494,1.448A4.977,4.977,0,0,0,213.472,366.453Zm0,0" transform="translate(-105.487 -185.121)"/>
    <path id="Path_5" data-name="Path 5" class="cls-1" d="M206.406,98.372,194.89,46.347a12.335,12.335,0,0,0,7.777-4.291A14.737,14.737,0,0,0,210.5,44.3h9.883a4.941,4.941,0,0,0,4.941-4.941V19.6a4.941,4.941,0,0,0-4.941-4.941H210.5a14.727,14.727,0,0,0-8.039,2.38,12.309,12.309,0,0,0-9.24-4.175h-29.17a12.359,12.359,0,0,0-11.512,7.906H140.83a12.848,12.848,0,1,0,0,25.7h25.435V56.42a4.941,4.941,0,0,0,9.883,0V46.462h8.647l12.4,56.044L173.723,144.32A14.514,14.514,0,0,1,161.1,151.7h-58.6a41.576,41.576,0,0,0-41.218-36.582,41.11,41.11,0,0,0-25.622,8.846l-.029.023A41.268,41.268,0,0,0,20.043,151.7H9.894A65.5,65.5,0,0,1,75.31,87.476h35.053a5.026,5.026,0,0,1,5.019,5.021v44.378a4.941,4.941,0,0,0,4.941,4.941h26.294a29.472,29.472,0,0,0,29.471-29.44l.025-16.417a4.943,4.943,0,0,0-4.936-4.949h-.006a4.942,4.942,0,0,0-4.941,4.934l-.025,16.421a19.584,19.584,0,0,1-19.588,19.567H125.264V92.495a14.821,14.821,0,0,0-1.755-7.007,14.819,14.819,0,0,0-7.389-27.668H98.085a14.755,14.755,0,0,0-4.941.849V15.324A14.842,14.842,0,0,0,78.319.5H46.441A46.515,46.515,0,0,0,.583,39.594a4.941,4.941,0,0,0-.23,1.49c0,.031,0,.06,0,.089A46.667,46.667,0,0,0,0,46.941v25.7A14.847,14.847,0,0,0,12.612,87.3L23.555,98.247A75.107,75.107,0,0,0,0,152.905v3.735a4.941,4.941,0,0,0,4.941,4.941h27.77a5.047,5.047,0,0,0-.1.988,28.523,28.523,0,0,0,7.024,18.762H4.941a4.941,4.941,0,0,0,0,9.883H60.7c.191.006.38.015.571.015a28.693,28.693,0,0,0,28.66-28.66,5.047,5.047,0,0,0-.1-.988H161.1a24.414,24.414,0,0,0,19.609-9.9h6.258a28.575,28.575,0,0,0,4.87,29.648H127.751a4.941,4.941,0,1,0,0,9.883H212.9c.191.006.38.015.571.015a28.648,28.648,0,0,0,26.506-39.547h8.084A4.941,4.941,0,0,0,253,146.742a48.464,48.464,0,0,0-46.594-48.37ZM98.085,67.7h18.036a4.941,4.941,0,0,1,0,9.883H98.085a4.941,4.941,0,0,1,0-9.883ZM9.883,46.941c0-.3.015-.608.023-.913H63.978a4.941,4.941,0,0,0,0-9.883H11.512a36.622,36.622,0,0,1,34.93-25.761H78.317a4.946,4.946,0,0,1,4.941,4.941v57.32a4.947,4.947,0,0,1-4.941,4.941H14.822a4.947,4.947,0,0,1-4.939-4.941ZM26.755,87.47H38.062a75.257,75.257,0,0,0-6.87,4.438Zm53.3,75.1a18.8,18.8,0,0,1-18.586,18.772c-.064,0-.127-.01-.191-.01H60.7A18.8,18.8,0,0,1,42.5,162.57a5.047,5.047,0,0,0-.1-.988H80.149a5.047,5.047,0,0,0-.1.988ZM30.015,151.7a31.436,31.436,0,0,1,11.715-19.943c.015-.01.029-.023.044-.033A31.315,31.315,0,0,1,61.273,125a31.691,31.691,0,0,1,31.254,26.7ZM210.5,24.538h4.941v9.883H210.5a4.941,4.941,0,1,1,0-9.883Zm-72.639,9.076a2.968,2.968,0,0,1,2.965-2.965h10.887v3.474a12.389,12.389,0,0,0,.245,2.455H140.83a2.968,2.968,0,0,1-2.965-2.965Zm33.341,2.965h-7.152a2.458,2.458,0,0,1-2.455-2.455V25.2a2.459,2.459,0,0,1,2.455-2.455h29.17a2.459,2.459,0,0,1,2.455,2.455v8.925a2.458,2.458,0,0,1-2.455,2.455Zm61.04,125.991a18.8,18.8,0,0,1-18.586,18.772c-.064,0-.127-.01-.191-.01H212.9a18.772,18.772,0,0,1-14.73-29.648h30.6a18.747,18.747,0,0,1,3.478,10.887ZM186.47,141.8l18.843-33.561A38.571,38.571,0,0,1,242.8,141.8Zm0,0"/>
    <path id="Path_6" data-name="Path 6" class="cls-1" d="M341.4,153.551a4.941,4.941,0,0,0,0-9.883h-.017a4.941,4.941,0,1,0,.017,9.883Zm0,0" transform="translate(-170.198 -72.423)"/>
  </g>
</svg>
